<svg width="105" height="104" viewBox="0 0 105 104" fill="none" xmlns="http://www.w3.org/2000/svg">
<g filter="url(#filter0_d_6_86)">
<rect x="14.9995" y="11.697" width="72.404" height="72.404" rx="36.202" fill="#fff" fill-opacity="1" shape-rendering="crispEdges"/>
<mask id="mask0_6_86" style="mask-type:luminance" maskUnits="userSpaceOnUse" x="29" y="26" width="45" height="44">
<path d="M29.2562 26.1099H73.1468V69.6881H29.2562V26.1099Z" fill="white"/>
</mask>
<g mask="url(#mask0_6_86)">
<path d="M66.6781 38.7662L72.8604 32.5891L67.0374 31.9485L66.3968 26.1204L60.2145 32.3027L60.6468 36.2297L59.6416 37.2297C56.4229 34.4589 52.251 32.7558 47.6781 32.7558C37.5166 32.7558 29.251 41.0214 29.251 51.1829C29.251 61.3391 37.5166 69.6047 47.6781 69.6047C57.8343 69.6047 66.0999 61.3391 66.0999 51.1829C66.0999 47.5474 65.027 44.1672 63.2093 41.3079L59.9541 44.5631C61.0218 46.5318 61.626 48.787 61.626 51.1829C61.626 58.8756 55.3708 65.1308 47.6781 65.1308C39.9854 65.1308 33.7249 58.8756 33.7249 51.1829C33.7249 43.4902 39.9854 37.2297 47.6781 37.2297C51.0166 37.2297 54.0739 38.4277 56.4749 40.3964L54.1781 42.6933C52.376 41.3079 50.1208 40.4797 47.6781 40.4797C41.777 40.4797 36.9749 45.2818 36.9749 51.1829C36.9749 57.0787 41.777 61.8808 47.6781 61.8808C53.5739 61.8808 58.376 57.0787 58.376 51.1829C58.376 49.6985 58.0687 48.2818 57.5218 46.9954L53.8499 50.6672C53.8656 50.8391 53.902 51.0058 53.902 51.1829C53.902 54.6152 51.1104 57.4068 47.6781 57.4068C44.2406 57.4068 41.4489 54.6152 41.4489 51.1829C41.4489 47.7454 44.2406 44.9537 47.6781 44.9537C48.8864 44.9537 50.0062 45.3131 50.9593 45.912L48.6312 48.2402C48.3291 48.1412 48.0114 48.0735 47.6781 48.0735C45.9593 48.0735 44.5687 49.4641 44.5687 51.1829C44.5687 52.8964 45.9593 54.287 47.6781 54.287C49.3916 54.287 50.7822 52.8964 50.7822 51.1829C50.7822 50.9172 50.7354 50.662 50.6729 50.4172L62.7562 38.3391L66.6781 38.7662Z" fill="#0E8CC7"/>
</g>
</g>
<defs>
<filter id="filter0_d_6_86" x="0.777228" y="0.0605965" width="103.434" height="103.434" filterUnits="userSpaceOnUse" color-interpolation-filters="sRGB">
<feFlood flood-opacity="0" result="BackgroundImageFix"/>
<feColorMatrix in="SourceAlpha" type="matrix" values="0 0 0 0 0 0 0 0 0 0 0 0 0 0 0 0 0 0 127 0" result="hardAlpha"/>
<feOffset dx="1.29293" dy="3.87879"/>
<feGaussianBlur stdDeviation="7.75758"/>
<feComposite in2="hardAlpha" operator="out"/>
<feColorMatrix type="matrix" values="0 0 0 0 0.0208531 0 0 0 0 0.263507 0 0 0 0 0.379147 0 0 0 0.05 0"/>
<feBlend mode="normal" in2="BackgroundImageFix" result="effect1_dropShadow_6_86"/>
<feBlend mode="normal" in="SourceGraphic" in2="effect1_dropShadow_6_86" result="shape"/>
</filter>
</defs>
</svg>
