<svg width="104" height="105" viewBox="0 0 104 105" fill="none" xmlns="http://www.w3.org/2000/svg">
<g filter="url(#filter0_d_6_98)">
<rect x="14.6661" y="12.4949" width="72.404" height="72.404" rx="36.202" fill="#fff" fill-opacity="1" shape-rendering="crispEdges"/>
<mask id="mask0_6_98" style="mask-type:luminance" maskUnits="userSpaceOnUse" x="28" y="26" width="37" height="42">
<path d="M28.665 26.2516H64.1962V67.4652H28.665V26.2516Z" fill="white"/>
</mask>
<g mask="url(#mask0_6_98)">
<path d="M49.3108 66.7673H32.1702C30.2379 66.7673 28.665 65.1944 28.665 63.2569V29.7569C28.665 27.8246 30.2379 26.2516 32.1702 26.2516H60.2171C62.1494 26.2516 63.7223 27.8246 63.7223 29.7569V49.6579C63.7223 50.3037 63.1962 50.8246 62.5504 50.8246C61.9098 50.8246 61.3837 50.3037 61.3837 49.6579V29.7569C61.3837 29.1162 60.8577 28.5902 60.2171 28.5902H32.1702C31.5244 28.5902 30.9983 29.1162 30.9983 29.7569V63.2569C30.9983 63.9027 31.5244 64.4287 32.1702 64.4287H49.3108C49.9566 64.4287 50.4775 64.9496 50.4775 65.5954C50.4775 66.2412 49.9566 66.7673 49.3108 66.7673Z" fill="#0E8CC7"/>
</g>
<path d="M50.0869 51.9652H34.5035C33.8629 51.9652 33.3369 51.4391 33.3369 50.7933C33.3369 50.1475 33.8629 49.6266 34.5035 49.6266H50.0869C50.7327 49.6266 51.2587 50.1475 51.2587 50.7933C51.2587 51.4391 50.7327 51.9652 50.0869 51.9652Z" fill="#0E8CC7"/>
<path d="M44.6337 56.6371H34.5035C33.8629 56.6371 33.3369 56.1162 33.3369 55.4704C33.3369 54.8246 33.8629 54.2985 34.5035 54.2985H44.6337C45.2796 54.2985 45.8004 54.8246 45.8004 55.4704C45.8004 56.1162 45.2796 56.6371 44.6337 56.6371Z" fill="#0E8CC7"/>
<path d="M39.9619 61.3141H34.5035C33.8629 61.3141 33.3369 60.7881 33.3369 60.1423C33.3369 59.4964 33.8629 58.9756 34.5035 58.9756H39.9619C40.6077 58.9756 41.1285 59.4964 41.1285 60.1423C41.1285 60.7881 40.6077 61.3141 39.9619 61.3141Z" fill="#0E8CC7"/>
<path d="M57.8785 47.2881H34.5035C33.8629 47.2881 33.3369 46.7673 33.3369 46.1214V32.8766C33.3369 32.2308 33.8629 31.7048 34.5035 31.7048C35.1494 31.7048 35.6754 32.2308 35.6754 32.8766V44.9496H57.8785C58.5244 44.9496 59.0452 45.4756 59.0452 46.1214C59.0452 46.7673 58.5244 47.2881 57.8785 47.2881Z" fill="#0E8CC7"/>
<path d="M34.5087 44.9495C34.1597 44.9495 33.816 44.7933 33.5816 44.5016C33.1858 43.9912 33.2795 43.2568 33.79 42.861L40.8004 37.4079C41.2691 37.0433 41.9254 37.0849 42.342 37.5016L43.915 39.0745L48.5504 35.1058C48.9462 34.762 49.5191 34.7256 49.9566 35.0172L51.6077 36.1162L57.1754 31.9391C57.6962 31.5537 58.4254 31.6579 58.816 32.1735C59.2014 32.6891 59.0972 33.4235 58.5816 33.8089L52.3472 38.486C51.9514 38.7829 51.4097 38.7985 50.9983 38.5224L49.3993 37.4547L44.6129 41.5537C44.1493 41.9495 43.4618 41.9235 43.0295 41.4912L41.4202 39.887L35.2222 44.7047C35.0087 44.8714 34.7587 44.9495 34.5087 44.9495Z" fill="#0E8CC7"/>
<path d="M57.1024 37.9391C57.0243 37.9391 56.9462 37.9339 56.8681 37.9183C56.2379 37.7881 55.8264 37.1735 55.9514 36.5433L56.4514 34.0433H53.9826C53.3368 34.0433 52.816 33.5225 52.816 32.8766C52.816 32.2308 53.3368 31.7048 53.9826 31.7048H57.8785C58.2274 31.7048 58.5608 31.8662 58.7847 32.1319C59.0035 32.4027 59.092 32.7621 59.0243 33.1058L58.2431 37.0016C58.1337 37.5537 57.6441 37.9391 57.1024 37.9391Z" fill="#0E8CC7"/>
<path d="M61.3993 58.3871L67.717 50.085C66.0347 49.0642 64.0764 48.4652 61.9722 48.4652C56.3108 48.4652 51.6389 52.7256 50.967 58.21L61.3993 58.3871Z" fill="#0E8CC7"/>
<path d="M69.5764 51.5016L63.4254 59.585L69.3472 67.8298C71.6285 65.7985 73.0712 62.8506 73.0712 59.5641C73.0712 56.3871 71.7222 53.5225 69.5764 51.5016Z" fill="#0E8CC7"/>
<mask id="mask1_6_98" style="mask-type:luminance" maskUnits="userSpaceOnUse" x="50" y="59" width="19" height="13">
<path d="M50.8629 59.4652H68.1962V71.1423H50.8629V59.4652Z" fill="white"/>
</mask>
<g mask="url(#mask1_6_98)">
<path d="M61.3629 60.7204L50.9254 60.5433C51.4254 66.2048 56.1858 70.6631 61.9722 70.6631C63.967 70.6631 65.8368 70.1267 67.4566 69.1996L61.3629 60.7204Z" fill="#0E8CC7"/>
</g>
</g>
<defs>
<filter id="filter0_d_6_98" x="0.443854" y="0.85857" width="103.434" height="103.434" filterUnits="userSpaceOnUse" color-interpolation-filters="sRGB">
<feFlood flood-opacity="0" result="BackgroundImageFix"/>
<feColorMatrix in="SourceAlpha" type="matrix" values="0 0 0 0 0 0 0 0 0 0 0 0 0 0 0 0 0 0 127 0" result="hardAlpha"/>
<feOffset dx="1.29293" dy="3.87879"/>
<feGaussianBlur stdDeviation="7.75758"/>
<feComposite in2="hardAlpha" operator="out"/>
<feColorMatrix type="matrix" values="0 0 0 0 0.0208531 0 0 0 0 0.263507 0 0 0 0 0.379147 0 0 0 0.05 0"/>
<feBlend mode="normal" in2="BackgroundImageFix" result="effect1_dropShadow_6_98"/>
<feBlend mode="normal" in="SourceGraphic" in2="effect1_dropShadow_6_98" result="shape"/>
</filter>
</defs>
</svg>
